<svg width="19" height="16" viewBox="0 0 19 16" fill="none" xmlns="http://www.w3.org/2000/svg">
<rect x="0.5" y="0.5" width="11" height="15" rx="1.5" fill="white" stroke="#CB0000"/>
<line x1="11.5" y1="7" x2="11.5" y2="8" stroke="white"/>
<line x1="11.5" y1="6" x2="11.5" y2="7" stroke="white"/>
<line x1="11.5" y1="5" x2="11.5" y2="6" stroke="white"/>
<line x1="11.5" y1="4" x2="11.5" y2="5" stroke="white"/>
<line x1="11.5" y1="3" x2="11.5" y2="4" stroke="white"/>
<line x1="11.5" y1="2" x2="11.5" y2="3" stroke="white"/>
<line x1="11.5" y1="9" x2="11.5" y2="10" stroke="white"/>
<line x1="11.5" y1="10" x2="11.5" y2="11" stroke="white"/>
<line x1="11.5" y1="11" x2="11.5" y2="12" stroke="white"/>
<line x1="11.5" y1="12" x2="11.5" y2="13" stroke="white"/>
<line x1="11.5" y1="13" x2="11.5" y2="14" stroke="white"/>
<line x1="11.5" y1="8" x2="11.5" y2="9" stroke="white"/>
<path d="M18.3536 8.35355C18.5488 8.15829 18.5488 7.84171 18.3536 7.64645L15.1716 4.46447C14.9763 4.2692 14.6597 4.2692 14.4645 4.46447C14.2692 4.65973 14.2692 4.97631 14.4645 5.17157L17.2929 8L14.4645 10.8284C14.2692 11.0237 14.2692 11.3403 14.4645 11.5355C14.6597 11.7308 14.9763 11.7308 15.1716 11.5355L18.3536 8.35355ZM10 8V8.5L18 8.5V8V7.5L10 7.5V8Z" fill="#CB0000"/>
</svg>
